<?xml version="1.0" encoding="utf-8"?>
<!-- Generator: Adobe Illustrator 16.0.0, SVG Export Plug-In . SVG Version: 6.00 Build 0)  -->
<!DOCTYPE svg PUBLIC "-//W3C//DTD SVG 1.1//EN" "http://www.w3.org/Graphics/SVG/1.1/DTD/svg11.dtd">
<svg version="1.1" id="Layer_1" xmlns:sketch="http://www.bohemiancoding.com/sketch/ns"
	 xmlns="http://www.w3.org/2000/svg" xmlns:xlink="http://www.w3.org/1999/xlink" x="0px" y="0px" width="31px" height="31px"
	 viewBox="0 0 31 31" enable-background="new 0 0 31 31" xml:space="preserve">
<title>Search</title>
<desc>Created with Sketch.</desc>
<g id="Page-1" sketch:type="MSPage">
	<g id="Home-large" transform="translate(-1270.000000, -30.000000)" sketch:type="MSArtboardGroup">
		<g id="Header-bar" transform="translate(90.000000, 0.000000)" sketch:type="MSLayerGroup">
			<g id="Search" transform="translate(1180.000000, 30.000000)" sketch:type="MSShapeGroup">
				<path id="Fill-2" fill="#FFFFFF" d="M16.663,9.865c-0.91,0.003-1.778,0.344-2.447,0.958l0.853,0.927
					c0.437-0.401,1.004-0.624,1.598-0.626c1.31-0.004,2.378,1.057,2.383,2.367c0.001,0.192-0.022,0.384-0.067,0.569l1.225,0.297
					c0.068-0.284,0.103-0.577,0.102-0.871C20.302,11.483,18.666,9.858,16.663,9.865"/>
				<path id="Fill-3" fill="#FFFFFF" d="M16.693,18.652c-2.846,0.01-5.161-2.29-5.171-5.136c-0.01-2.846,2.289-5.162,5.136-5.171
					c2.846-0.01,5.16,2.289,5.17,5.135C21.839,16.327,19.539,18.642,16.693,18.652 M16.652,6.895
					c-3.646,0.013-6.593,2.98-6.58,6.626c0.005,1.343,0.412,2.589,1.104,3.629L6.9,21.457l2.01,1.996l4.306-4.338
					c1.013,0.627,2.204,0.991,3.482,0.987c3.647-0.014,6.593-2.98,6.581-6.627C23.267,9.829,20.299,6.882,16.652,6.895"/>
			</g>
		</g>
	</g>
</g>
</svg>
